<mxfile host="app.diagrams.net" modified="2021-06-14T12:24:11.129Z" agent="5.0 (Windows NT 10.0; Win64; x64) AppleWebKit/537.36 (KHTML, like Gecko) Chrome/91.0.4472.77 Safari/537.36" etag="3M7efMM2ZOlp8pdlZShe" version="14.6.11" type="github">
  <diagram id="5TbdluTKNJDvcX_zOkxE" name="Page-1">
    <mxGraphModel dx="1037" dy="953" grid="1" gridSize="10" guides="1" tooltips="1" connect="1" arrows="1" fold="1" page="1" pageScale="1" pageWidth="827" pageHeight="1169" math="0" shadow="0">
      <root>
        <mxCell id="0" />
        <mxCell id="1" parent="0" />
        <mxCell id="EX3dg3MqqlWu1X2TF-9P-1" value="COVP" style="shape=cylinder3;whiteSpace=wrap;html=1;boundedLbl=1;backgroundOutline=1;size=15;" parent="1" vertex="1">
          <mxGeometry x="534" y="470" width="60" height="80" as="geometry" />
        </mxCell>
        <mxCell id="EX3dg3MqqlWu1X2TF-9P-2" value="ZICOPSB_ActualCosts" style="rounded=1;whiteSpace=wrap;html=1;" parent="1" vertex="1">
          <mxGeometry x="494" y="330" width="140" height="60" as="geometry" />
        </mxCell>
        <mxCell id="EX3dg3MqqlWu1X2TF-9P-3" value="ZIPSPRS_WBSElement" style="rounded=1;whiteSpace=wrap;html=1;" parent="1" vertex="1">
          <mxGeometry x="180" y="330" width="140" height="60" as="geometry" />
        </mxCell>
        <mxCell id="EX3dg3MqqlWu1X2TF-9P-6" value="ZCCOPSB_ActualCost" style="rounded=1;whiteSpace=wrap;html=1;" parent="1" vertex="1">
          <mxGeometry x="343" y="170" width="140" height="60" as="geometry" />
        </mxCell>
        <mxCell id="EX3dg3MqqlWu1X2TF-9P-7" value="" style="shape=flexArrow;endArrow=classic;html=1;" parent="1" source="EX3dg3MqqlWu1X2TF-9P-1" target="EX3dg3MqqlWu1X2TF-9P-2" edge="1">
          <mxGeometry width="50" height="50" relative="1" as="geometry">
            <mxPoint x="243" y="470" as="sourcePoint" />
            <mxPoint x="293" y="420" as="targetPoint" />
          </mxGeometry>
        </mxCell>
        <mxCell id="EX3dg3MqqlWu1X2TF-9P-8" value="" style="shape=flexArrow;endArrow=classic;html=1;" parent="1" source="EX3dg3MqqlWu1X2TF-9P-3" target="EX3dg3MqqlWu1X2TF-9P-6" edge="1">
          <mxGeometry width="50" height="50" relative="1" as="geometry">
            <mxPoint x="273" y="210" as="sourcePoint" />
            <mxPoint x="323" y="160" as="targetPoint" />
            <Array as="points">
              <mxPoint x="382" y="240" />
            </Array>
          </mxGeometry>
        </mxCell>
        <mxCell id="EX3dg3MqqlWu1X2TF-9P-9" value="" style="shape=flexArrow;endArrow=classic;html=1;" parent="1" source="EX3dg3MqqlWu1X2TF-9P-2" target="EX3dg3MqqlWu1X2TF-9P-6" edge="1">
          <mxGeometry width="50" height="50" relative="1" as="geometry">
            <mxPoint x="529.2" y="270" as="sourcePoint" />
            <mxPoint x="633" y="120" as="targetPoint" />
          </mxGeometry>
        </mxCell>
        <mxCell id="EX3dg3MqqlWu1X2TF-9P-10" value="" style="endArrow=none;dashed=1;html=1;dashPattern=1 3;strokeWidth=2;" parent="1" edge="1">
          <mxGeometry width="50" height="50" relative="1" as="geometry">
            <mxPoint x="24" y="440" as="sourcePoint" />
            <mxPoint x="804" y="440" as="targetPoint" />
          </mxGeometry>
        </mxCell>
        <mxCell id="EX3dg3MqqlWu1X2TF-9P-11" value="SAP Table" style="text;html=1;resizable=0;autosize=1;align=center;verticalAlign=middle;points=[];fillColor=none;strokeColor=none;rounded=0;" parent="1" vertex="1">
          <mxGeometry x="24" y="440" width="70" height="20" as="geometry" />
        </mxCell>
        <mxCell id="EX3dg3MqqlWu1X2TF-9P-12" value="" style="endArrow=none;dashed=1;html=1;dashPattern=1 3;strokeWidth=2;" parent="1" edge="1">
          <mxGeometry width="50" height="50" relative="1" as="geometry">
            <mxPoint x="54" y="140" as="sourcePoint" />
            <mxPoint x="814" y="140" as="targetPoint" />
          </mxGeometry>
        </mxCell>
        <mxCell id="EX3dg3MqqlWu1X2TF-9P-13" value="SAP FACT" style="text;html=1;resizable=0;autosize=1;align=center;verticalAlign=middle;points=[];fillColor=none;strokeColor=none;rounded=0;" parent="1" vertex="1">
          <mxGeometry x="14" y="280" width="70" height="20" as="geometry" />
        </mxCell>
        <mxCell id="EX3dg3MqqlWu1X2TF-9P-14" value="" style="endArrow=none;dashed=1;html=1;dashPattern=1 3;strokeWidth=2;" parent="1" edge="1">
          <mxGeometry width="50" height="50" relative="1" as="geometry">
            <mxPoint x="54" y="280" as="sourcePoint" />
            <mxPoint x="814" y="280" as="targetPoint" />
          </mxGeometry>
        </mxCell>
        <mxCell id="EX3dg3MqqlWu1X2TF-9P-15" value="SAP Composite" style="text;html=1;resizable=0;autosize=1;align=center;verticalAlign=middle;points=[];fillColor=none;strokeColor=none;rounded=0;" parent="1" vertex="1">
          <mxGeometry x="14" y="140" width="100" height="20" as="geometry" />
        </mxCell>
        <mxCell id="EX3dg3MqqlWu1X2TF-9P-16" value="SAP Consumption" style="text;html=1;resizable=0;autosize=1;align=center;verticalAlign=middle;points=[];fillColor=none;strokeColor=none;rounded=0;" parent="1" vertex="1">
          <mxGeometry x="14" y="20" width="110" height="20" as="geometry" />
        </mxCell>
        <mxCell id="EX3dg3MqqlWu1X2TF-9P-17" value="PRPS" style="shape=cylinder3;whiteSpace=wrap;html=1;boundedLbl=1;backgroundOutline=1;size=15;" parent="1" vertex="1">
          <mxGeometry x="220" y="470" width="60" height="80" as="geometry" />
        </mxCell>
        <mxCell id="EX3dg3MqqlWu1X2TF-9P-18" value="COEP" style="shape=cylinder3;whiteSpace=wrap;html=1;boundedLbl=1;backgroundOutline=1;size=15;" parent="1" vertex="1">
          <mxGeometry x="674" y="580" width="60" height="80" as="geometry" />
        </mxCell>
        <mxCell id="EX3dg3MqqlWu1X2TF-9P-19" value="COBK" style="shape=cylinder3;whiteSpace=wrap;html=1;boundedLbl=1;backgroundOutline=1;size=15;" parent="1" vertex="1">
          <mxGeometry x="404" y="580" width="60" height="80" as="geometry" />
        </mxCell>
        <mxCell id="EX3dg3MqqlWu1X2TF-9P-22" value="" style="endArrow=classic;html=1;exitX=0;exitY=0.5;exitDx=0;exitDy=0;exitPerimeter=0;entryX=1;entryY=0.5;entryDx=0;entryDy=0;entryPerimeter=0;" parent="1" source="EX3dg3MqqlWu1X2TF-9P-1" target="EX3dg3MqqlWu1X2TF-9P-17" edge="1">
          <mxGeometry width="50" height="50" relative="1" as="geometry">
            <mxPoint x="353" y="330" as="sourcePoint" />
            <mxPoint x="403" y="280" as="targetPoint" />
          </mxGeometry>
        </mxCell>
        <mxCell id="EX3dg3MqqlWu1X2TF-9P-23" value="OBJNR" style="text;html=1;align=center;verticalAlign=middle;resizable=0;points=[];autosize=1;strokeColor=none;" parent="1" vertex="1">
          <mxGeometry x="363" y="490" width="60" height="20" as="geometry" />
        </mxCell>
        <mxCell id="EX3dg3MqqlWu1X2TF-9P-26" value="" style="edgeStyle=entityRelationEdgeStyle;fontSize=12;html=1;endArrow=ERzeroToMany;startArrow=ERmandOne;" parent="1" source="EX3dg3MqqlWu1X2TF-9P-19" target="EX3dg3MqqlWu1X2TF-9P-18" edge="1">
          <mxGeometry width="100" height="100" relative="1" as="geometry">
            <mxPoint x="323" y="550" as="sourcePoint" />
            <mxPoint x="423" y="450" as="targetPoint" />
          </mxGeometry>
        </mxCell>
        <mxCell id="EX3dg3MqqlWu1X2TF-9P-27" value="" style="endArrow=classic;html=1;" parent="1" source="EX3dg3MqqlWu1X2TF-9P-19" target="EX3dg3MqqlWu1X2TF-9P-1" edge="1">
          <mxGeometry width="50" height="50" relative="1" as="geometry">
            <mxPoint x="313" y="600" as="sourcePoint" />
            <mxPoint x="363" y="550" as="targetPoint" />
          </mxGeometry>
        </mxCell>
        <mxCell id="EX3dg3MqqlWu1X2TF-9P-28" value="" style="endArrow=classic;html=1;" parent="1" source="EX3dg3MqqlWu1X2TF-9P-18" target="EX3dg3MqqlWu1X2TF-9P-1" edge="1">
          <mxGeometry width="50" height="50" relative="1" as="geometry">
            <mxPoint x="323" y="610" as="sourcePoint" />
            <mxPoint x="393" y="540" as="targetPoint" />
          </mxGeometry>
        </mxCell>
        <mxCell id="EX3dg3MqqlWu1X2TF-9P-29" value="" style="shape=flexArrow;endArrow=classic;html=1;" parent="1" source="EX3dg3MqqlWu1X2TF-9P-17" target="EX3dg3MqqlWu1X2TF-9P-3" edge="1">
          <mxGeometry width="50" height="50" relative="1" as="geometry">
            <mxPoint x="123" y="620" as="sourcePoint" />
            <mxPoint x="173" y="570" as="targetPoint" />
          </mxGeometry>
        </mxCell>
        <mxCell id="EX3dg3MqqlWu1X2TF-9P-31" value="ZQCOPSB_ActualCost" style="rounded=1;whiteSpace=wrap;html=1;" parent="1" vertex="1">
          <mxGeometry x="343" y="40" width="140" height="60" as="geometry" />
        </mxCell>
        <mxCell id="EX3dg3MqqlWu1X2TF-9P-32" value="" style="shape=flexArrow;endArrow=classic;html=1;exitX=0.5;exitY=0;exitDx=0;exitDy=0;" parent="1" source="EX3dg3MqqlWu1X2TF-9P-6" target="EX3dg3MqqlWu1X2TF-9P-31" edge="1">
          <mxGeometry width="50" height="50" relative="1" as="geometry">
            <mxPoint x="319" y="170" as="sourcePoint" />
            <mxPoint x="369" y="120" as="targetPoint" />
          </mxGeometry>
        </mxCell>
        <mxCell id="EX3dg3MqqlWu1X2TF-9P-33" value="PSP-Element" style="text;html=1;align=center;verticalAlign=middle;resizable=0;points=[];autosize=1;strokeColor=none;" parent="1" vertex="1">
          <mxGeometry x="205" y="565" width="90" height="20" as="geometry" />
        </mxCell>
        <mxCell id="EX3dg3MqqlWu1X2TF-9P-37" value="CO-Objekt&lt;br&gt;Belegkopf" style="text;html=1;align=center;verticalAlign=middle;resizable=0;points=[];autosize=1;strokeColor=none;" parent="1" vertex="1">
          <mxGeometry x="399" y="670" width="70" height="30" as="geometry" />
        </mxCell>
        <mxCell id="EX3dg3MqqlWu1X2TF-9P-38" value="CO-Objekt&lt;br&gt;Einzelposten" style="text;html=1;align=center;verticalAlign=middle;resizable=0;points=[];autosize=1;strokeColor=none;" parent="1" vertex="1">
          <mxGeometry x="664" y="670" width="80" height="30" as="geometry" />
        </mxCell>
        <mxCell id="EX3dg3MqqlWu1X2TF-9P-39" value="BELNR" style="text;html=1;align=center;verticalAlign=middle;resizable=0;points=[];autosize=1;strokeColor=none;" parent="1" vertex="1">
          <mxGeometry x="534" y="600" width="60" height="20" as="geometry" />
        </mxCell>
        <mxCell id="EX3dg3MqqlWu1X2TF-9P-40" value="1...n" style="text;html=1;align=center;verticalAlign=middle;resizable=0;points=[];autosize=1;strokeColor=none;" parent="1" vertex="1">
          <mxGeometry x="393" y="600" width="40" height="20" as="geometry" />
        </mxCell>
        <mxCell id="GqLra0BBOTVlr42I03A_-16" value="ZQCOPSB_ActualCost" style="rounded=1;whiteSpace=wrap;html=1;" vertex="1" parent="1">
          <mxGeometry x="343" y="40" width="140" height="60" as="geometry" />
        </mxCell>
        <mxCell id="GqLra0BBOTVlr42I03A_-17" value="ZCCOPSB_ActualCost" style="rounded=1;whiteSpace=wrap;html=1;" vertex="1" parent="1">
          <mxGeometry x="343" y="170" width="140" height="60" as="geometry" />
        </mxCell>
        <mxCell id="GqLra0BBOTVlr42I03A_-18" value="ZIPSPRS_WBSElement" style="rounded=1;whiteSpace=wrap;html=1;" vertex="1" parent="1">
          <mxGeometry x="180" y="330" width="140" height="60" as="geometry" />
        </mxCell>
        <mxCell id="GqLra0BBOTVlr42I03A_-19" value="ZICOPSB_ActualCosts" style="rounded=1;whiteSpace=wrap;html=1;" vertex="1" parent="1">
          <mxGeometry x="494" y="330" width="140" height="60" as="geometry" />
        </mxCell>
        <mxCell id="GqLra0BBOTVlr42I03A_-20" value="PRPS" style="shape=cylinder3;whiteSpace=wrap;html=1;boundedLbl=1;backgroundOutline=1;size=15;" vertex="1" parent="1">
          <mxGeometry x="220" y="470" width="60" height="80" as="geometry" />
        </mxCell>
        <mxCell id="GqLra0BBOTVlr42I03A_-21" value="COVP" style="shape=cylinder3;whiteSpace=wrap;html=1;boundedLbl=1;backgroundOutline=1;size=15;" vertex="1" parent="1">
          <mxGeometry x="534" y="470" width="60" height="80" as="geometry" />
        </mxCell>
        <mxCell id="GqLra0BBOTVlr42I03A_-22" value="COBK" style="shape=cylinder3;whiteSpace=wrap;html=1;boundedLbl=1;backgroundOutline=1;size=15;" vertex="1" parent="1">
          <mxGeometry x="404" y="580" width="60" height="80" as="geometry" />
        </mxCell>
        <mxCell id="GqLra0BBOTVlr42I03A_-23" value="COEP" style="shape=cylinder3;whiteSpace=wrap;html=1;boundedLbl=1;backgroundOutline=1;size=15;" vertex="1" parent="1">
          <mxGeometry x="674" y="580" width="60" height="80" as="geometry" />
        </mxCell>
      </root>
    </mxGraphModel>
  </diagram>
</mxfile>
